# xmcd
#
# Track frame offsets:
#	151
#	18732
#	37345
#	58258
#	74639
#	91646
#	110973
#	132366
#	153989
#	174352
#	195563
#	211380
#	231363
#
# Disc length: 3313 seconds
#
# Revision: 1
# Processed by: cddbd v1.5.1PL0 Copyright (c) Steve Scherf et al.
# Submitted via: EasyCDDAExtractor 6.2.0.3
#
DISCID=c30cef0d
DTITLE=Various Artist - Universal Street Hitz 15
DYEAR=2004
DGENRE=R&B
TTITLE0=Cam'Ron - Girls
TTITLE1=Jadakiss feat Mariah Carey - U Make Me Wanna
TTITLE2=Lloyd Banks - Karma
TTITLE3=Lil Romeo - My Cinderella
TTITLE4=Mos Def - Sex, Love and Money
TTITLE5=Shawnna - Weight A Minute
TTITLE6=Young Buck feat The Game and Ludacris - Stomp
TTITLE7=Body Head Bangerz feat Young Bloodz - I Smoke, I Drank (Remix)
TTITLE8=Boys In Da Hood - Dem Boyz
TTITLE9=Baby feat Lil Wayne - Shyne On
TTITLE10=LB feat Wayne Marshall - All Rise (Remix)
TTITLE11=Nina Sky feat Shawnna and Pitbull - Turnin' Me On (Remix)
TTITLE12=Akon feat Bobba - Locked Up (Remix)
EXTD=
EXTT0=
EXTT1=
EXTT2=
EXTT3=
EXTT4=
EXTT5=
EXTT6=
EXTT7=
EXTT8=
EXTT9=
EXTT10=
EXTT11=
EXTT12=
PLAYORDER=
